<svg xmlns="http://www.w3.org/2000/svg" xmlns:xlink="http://www.w3.org/1999/xlink" preserveAspectRatio="xMidYMid" width="629.563" height="940" viewBox="0 0 629.563 940">
  <defs>
    <style>
      .cls-1 {
        fill: #e9f2c2;
        fill-rule: evenodd;
      }
    </style>
  </defs>
  <g>
    <path d="M515.210,781.036 C525.906,807.150 584.618,813.963 625.563,788.000 C578.822,861.423 398.947,916.766 294.562,786.000 C237.068,714.502 224.986,632.098 230.814,557.073 C242.239,564.785 254.148,571.009 268.030,571.009 C268.041,571.009 268.052,571.009 268.062,571.009 L268.062,570.946 L268.536,571.015 C268.547,571.015 268.558,571.015 268.569,571.015 C298.768,571.033 319.616,541.559 346.458,531.362 C348.441,530.677 350.129,530.093 350.168,530.081 C353.136,529.116 356.191,528.409 359.305,527.873 C343.291,575.998 336.895,624.776 362.562,664.000 C418.067,750.402 584.157,733.458 629.562,687.000 C625.361,744.188 542.149,789.303 515.210,781.036 ZM138.740,526.188 C153.987,526.518 169.681,525.453 183.721,529.288 C185.728,529.903 187.437,530.426 187.476,530.438 C199.988,534.524 211.134,542.996 222.397,551.148 C215.889,614.199 221.256,683.283 255.388,747.176 C267.347,839.731 293.562,921.000 293.562,921.000 C293.562,921.000 268.359,899.951 246.563,872.000 C225.889,845.489 208.563,812.000 208.563,812.000 C208.563,812.000 189.667,830.296 174.562,859.000 C157.090,892.205 150.562,940.000 150.562,940.000 C150.562,940.000 101.007,805.449 109.562,665.000 C113.178,605.652 125.619,559.575 138.740,526.188 Z" class="cls-1"/>
    <path d="M521.832,283.239 C523.162,310.902 543.886,338.797 534.885,366.501 C534.881,366.511 534.878,366.521 534.875,366.531 L494.006,353.252 C501.497,330.182 505.562,305.567 505.562,280.000 C505.562,254.435 501.498,229.822 494.008,206.753 L534.875,193.475 C534.878,193.485 534.881,193.495 534.885,193.505 C544.178,222.106 521.787,250.912 521.765,279.454 C521.765,279.493 521.796,281.216 521.832,283.239 ZM268.562,43.000 C268.562,43.000 268.562,43.000 268.561,43.000 L268.561,0.003 C268.572,0.003 268.582,0.002 268.593,0.002 C298.666,0.002 319.143,30.199 346.281,39.040 C346.318,39.052 347.966,39.555 349.902,40.146 C376.621,47.429 409.556,36.339 433.122,53.461 C433.130,53.467 433.138,53.473 433.146,53.479 L433.155,53.466 C433.164,53.472 433.172,53.477 433.181,53.484 C457.511,71.160 456.328,107.626 473.087,130.730 C473.110,130.761 474.147,132.137 475.366,133.753 C492.701,155.350 525.864,165.737 534.866,193.441 C534.869,193.451 534.872,193.461 534.875,193.471 L494.007,206.749 C463.148,111.712 373.887,43.000 268.562,43.000 ZM103.965,53.472 C103.974,53.466 103.982,53.460 103.990,53.454 C128.320,35.777 162.635,48.170 189.787,39.371 C189.824,39.359 191.453,38.798 193.367,38.138 C219.264,28.325 239.390,-0.005 268.520,-0.005 C268.530,-0.005 268.540,-0.005 268.551,-0.005 L268.551,43.000 C216.485,43.003 168.351,59.808 129.248,88.270 L103.965,53.472 ZM43.115,206.761 L2.242,193.480 C2.245,193.470 2.248,193.460 2.251,193.450 C11.544,164.849 46.590,154.705 63.385,131.627 C63.407,131.596 64.395,130.184 65.556,128.526 C80.739,105.365 80.369,70.615 103.936,53.493 C103.944,53.487 103.953,53.481 103.961,53.475 L129.244,88.273 C89.247,117.387 58.716,158.705 43.115,206.761 ZM43.113,206.765 C35.626,229.830 31.563,254.439 31.563,280.000 C31.563,358.823 70.053,428.646 129.253,471.733 L103.961,506.544 C103.953,506.538 103.944,506.532 103.936,506.526 C79.606,488.849 80.788,452.384 64.030,429.280 C64.007,429.249 62.969,427.873 61.751,426.257 C44.416,404.660 11.252,394.273 2.251,366.569 C2.248,366.559 2.245,366.549 2.242,366.539 L2.247,366.537 C2.244,366.530 2.242,366.522 2.239,366.514 C-7.054,337.912 15.336,309.107 15.359,280.564 C15.359,280.526 15.328,278.803 15.292,276.779 C13.962,249.117 -6.763,221.222 2.239,193.517 C2.242,193.507 2.246,193.498 2.249,193.488 L43.113,206.765 ZM268.562,510.375 C141.330,510.375 38.188,407.233 38.188,280.000 C38.188,152.767 141.330,49.625 268.562,49.625 C395.795,49.625 498.938,152.767 498.938,280.000 C498.938,407.233 395.795,510.375 268.562,510.375 ZM425.531,437.000 C427.093,435.438 423.294,429.106 417.046,422.858 C410.797,416.609 404.466,412.810 402.904,414.372 C401.342,415.935 405.141,422.266 411.389,428.515 C417.637,434.763 423.969,438.562 425.531,437.000 ZM414.679,447.015 C416.340,445.559 412.964,438.992 407.137,432.348 C401.311,425.705 395.241,421.500 393.580,422.956 C391.919,424.413 395.296,430.979 401.122,437.623 C406.949,444.267 413.018,448.472 414.679,447.015 ZM403.442,456.215 C405.194,454.870 402.254,448.097 396.875,441.087 C391.496,434.076 385.714,429.483 383.961,430.828 C382.209,432.173 385.149,438.946 390.528,445.957 C395.907,452.967 401.689,457.560 403.442,456.215 ZM391.670,464.615 C393.507,463.388 391.016,456.436 386.107,449.089 C381.197,441.742 375.728,436.781 373.892,438.008 C372.055,439.235 374.545,446.186 379.455,453.534 C384.364,460.881 389.833,465.842 391.670,464.615 ZM379.330,472.272 C381.243,471.168 379.213,464.069 374.794,456.416 C370.376,448.763 365.243,443.455 363.330,444.560 C361.417,445.664 363.448,452.763 367.866,460.416 C372.284,468.069 377.417,473.377 379.330,472.272 ZM366.313,479.283 C368.294,478.306 366.732,471.089 362.824,463.164 C358.916,455.239 354.141,449.606 352.160,450.583 C350.178,451.560 351.741,458.777 355.649,466.703 C359.557,474.628 364.332,480.260 366.313,479.283 ZM353.068,485.251 C355.109,484.406 354.023,477.102 350.641,468.938 C347.259,460.774 342.864,454.841 340.823,455.687 C338.782,456.532 339.868,463.836 343.250,472.000 C346.632,480.164 351.027,486.096 353.068,485.251 ZM330.499,476.544 C333.339,484.911 337.337,491.119 339.429,490.409 C341.521,489.699 340.914,482.340 338.074,473.972 C335.234,465.605 331.235,459.397 329.143,460.107 C327.051,460.817 327.658,468.176 330.499,476.544 ZM317.510,480.175 C319.797,488.710 323.381,495.166 325.515,494.595 C327.648,494.023 327.524,486.640 325.237,478.104 C322.950,469.569 319.366,463.113 317.232,463.685 C315.099,464.257 315.223,471.640 317.510,480.175 ZM304.334,483.018 C306.058,491.685 309.212,498.362 311.378,497.931 C313.545,497.500 313.904,490.124 312.180,481.458 C310.456,472.791 307.302,466.115 305.135,466.545 C302.969,466.976 302.610,474.352 304.334,483.018 ZM290.978,484.924 C292.131,493.685 294.842,500.554 297.032,500.265 C299.222,499.977 300.063,492.641 298.909,483.880 C297.756,475.119 295.045,468.251 292.855,468.539 C290.665,468.828 289.824,476.164 290.978,484.924 ZM278.046,485.819 C278.624,494.637 280.879,501.668 283.083,501.523 C285.288,501.379 286.606,494.114 286.029,485.296 C285.451,476.478 283.195,469.447 280.991,469.592 C278.786,469.736 277.468,477.002 278.046,485.819 ZM268.562,502.000 C270.772,502.000 272.563,494.837 272.563,486.000 C272.563,477.163 270.772,470.000 268.562,470.000 C266.353,470.000 264.563,477.163 264.563,486.000 C264.563,494.837 266.353,502.000 268.562,502.000 ZM253.976,501.493 C256.180,501.638 258.436,494.607 259.014,485.789 C259.591,476.971 258.273,469.706 256.068,469.562 C253.864,469.417 251.609,476.448 251.031,485.266 C250.453,494.083 251.772,501.349 253.976,501.493 ZM239.518,500.068 C241.708,500.356 244.418,493.488 245.572,484.727 C246.725,475.966 245.884,468.630 243.694,468.341 C241.504,468.053 238.793,474.922 237.640,483.682 C236.487,492.443 237.327,499.779 239.518,500.068 ZM225.181,497.698 C227.347,498.129 230.501,491.453 232.225,482.786 C233.949,474.119 233.590,466.744 231.424,466.313 C229.257,465.882 226.103,472.558 224.379,481.225 C222.655,489.892 223.014,497.267 225.181,497.698 ZM211.032,494.397 C213.166,494.969 216.750,488.513 219.037,479.978 C221.324,471.443 221.448,464.060 219.314,463.488 C217.180,462.916 213.597,469.372 211.310,477.907 C209.023,486.443 208.898,493.826 211.032,494.397 ZM197.081,490.105 C199.173,490.815 203.171,484.607 206.012,476.240 C208.852,467.872 209.459,460.513 207.367,459.803 C205.275,459.093 201.277,465.301 198.436,473.668 C195.596,482.036 194.989,489.395 197.081,490.105 ZM183.489,484.983 C185.530,485.828 189.926,479.895 193.308,471.731 C196.689,463.567 197.776,456.264 195.735,455.419 C193.694,454.573 189.298,460.506 185.917,468.670 C182.535,476.834 181.448,484.137 183.489,484.983 ZM170.249,478.913 C172.231,479.890 177.005,474.258 180.914,466.332 C184.822,458.407 186.384,451.190 184.403,450.213 C182.421,449.236 177.647,454.869 173.739,462.794 C169.830,470.719 168.268,477.936 170.249,478.913 ZM157.447,472.060 C159.360,473.165 164.493,467.856 168.911,460.204 C173.330,452.551 175.360,445.452 173.447,444.347 C171.534,443.243 166.401,448.551 161.983,456.204 C157.565,463.856 155.534,470.955 157.447,472.060 ZM145.056,464.418 C146.892,465.645 152.361,460.684 157.271,453.337 C162.180,445.989 164.671,439.038 162.834,437.811 C160.997,436.584 155.528,441.545 150.619,448.892 C145.709,456.240 143.219,463.191 145.056,464.418 ZM133.255,455.948 C135.008,457.293 140.789,452.700 146.169,445.690 C151.548,438.679 154.488,431.906 152.736,430.561 C150.983,429.216 145.201,433.809 139.822,440.820 C134.443,447.830 131.503,454.603 133.255,455.948 ZM122.098,446.873 C123.759,448.330 129.829,444.125 135.655,437.481 C141.481,430.837 144.858,424.271 143.197,422.814 C141.536,421.358 135.466,425.562 129.640,432.206 C123.814,438.850 120.437,445.416 122.098,446.873 ZM111.494,436.939 C113.056,438.501 119.388,434.702 125.636,428.454 C131.885,422.206 135.684,415.874 134.122,414.312 C132.560,412.750 126.228,416.549 119.980,422.797 C113.731,429.046 109.932,435.377 111.494,436.939 ZM101.479,426.088 C102.936,427.748 109.502,424.372 116.146,418.545 C122.789,412.719 126.994,406.649 125.538,404.989 C124.081,403.328 117.515,406.704 110.871,412.531 C104.227,418.357 100.022,424.427 101.479,426.088 ZM92.279,414.850 C93.624,416.602 100.397,413.662 107.408,408.283 C114.418,402.904 119.011,397.122 117.666,395.370 C116.321,393.617 109.548,396.557 102.538,401.936 C95.527,407.316 90.934,413.097 92.279,414.850 ZM83.879,403.078 C85.107,404.915 92.058,402.424 99.405,397.515 C106.752,392.605 111.714,387.137 110.486,385.300 C109.259,383.463 102.308,385.954 94.960,390.863 C87.613,395.772 82.652,401.241 83.879,403.078 ZM76.222,390.738 C77.326,392.652 84.425,390.621 92.078,386.203 C99.731,381.784 105.039,376.652 103.935,374.738 C102.830,372.825 95.731,374.856 88.078,379.274 C80.425,383.693 75.117,388.825 76.222,390.738 ZM69.211,377.721 C70.188,379.703 77.405,378.140 85.330,374.232 C93.255,370.324 98.888,365.549 97.911,363.568 C96.934,361.587 89.717,363.149 81.792,367.057 C73.866,370.965 68.234,375.740 69.211,377.721 ZM63.243,364.477 C64.089,366.518 71.392,365.431 79.556,362.049 C87.720,358.668 93.653,354.272 92.807,352.231 C91.962,350.190 84.658,351.277 76.495,354.658 C68.331,358.040 62.398,362.436 63.243,364.477 ZM58.085,350.838 C58.795,352.929 66.154,352.323 74.522,349.482 C82.889,346.642 89.097,342.643 88.387,340.552 C87.677,338.460 80.318,339.066 71.950,341.907 C63.583,344.747 57.375,348.746 58.085,350.838 ZM53.900,336.923 C54.471,339.057 61.854,338.933 70.390,336.645 C78.925,334.358 85.381,330.774 84.809,328.641 C84.237,326.507 76.855,326.631 68.319,328.918 C59.784,331.205 53.328,334.789 53.900,336.923 ZM67.036,323.588 C75.703,321.864 82.380,318.710 81.949,316.544 C81.518,314.377 74.143,314.018 65.476,315.742 C56.809,317.466 50.133,320.620 50.564,322.787 C50.995,324.953 58.370,325.312 67.036,323.588 ZM63.198,297.437 C72.016,296.859 79.047,294.603 78.902,292.399 C78.758,290.194 71.492,288.876 62.675,289.454 C53.857,290.032 46.826,292.287 46.971,294.492 C47.115,296.696 54.380,298.015 63.198,297.437 ZM46.494,279.971 C46.494,282.180 53.658,283.971 62.494,283.971 C71.331,283.971 78.494,282.180 78.494,279.971 C78.494,277.762 71.331,275.971 62.494,275.971 C53.658,275.971 46.494,277.762 46.494,279.971 ZM47.009,265.396 C46.864,267.600 53.896,269.856 62.713,270.434 C71.531,271.011 78.796,269.693 78.940,267.488 C79.085,265.284 72.054,263.029 63.236,262.451 C54.419,261.873 47.153,263.192 47.009,265.396 ZM48.434,250.938 C48.146,253.128 55.014,255.838 63.775,256.992 C72.536,258.145 79.872,257.304 80.161,255.114 C80.449,252.924 73.580,250.213 64.820,249.060 C56.059,247.907 48.723,248.747 48.434,250.938 ZM50.804,236.601 C50.373,238.767 57.049,241.921 65.716,243.645 C74.383,245.369 81.758,245.010 82.189,242.843 C82.620,240.677 75.944,237.523 67.277,235.799 C58.610,234.075 51.235,234.434 50.804,236.601 ZM54.104,222.452 C53.533,224.586 59.989,228.170 68.524,230.457 C77.060,232.744 84.442,232.868 85.014,230.734 C85.586,228.600 79.130,225.017 70.595,222.729 C62.059,220.442 54.676,220.318 54.104,222.452 ZM58.397,208.501 C57.687,210.593 63.895,214.591 72.262,217.432 C80.630,220.272 87.989,220.879 88.699,218.787 C89.409,216.695 83.201,212.697 74.834,209.856 C66.466,207.016 59.107,206.409 58.397,208.501 ZM63.519,194.909 C62.674,196.950 68.607,201.346 76.771,204.728 C84.935,208.109 92.238,209.196 93.083,207.155 C93.929,205.114 87.996,200.718 79.832,197.337 C71.668,193.955 64.365,192.868 63.519,194.909 ZM69.589,181.669 C68.612,183.651 74.245,188.425 82.170,192.333 C90.095,196.242 97.312,197.804 98.289,195.823 C99.266,193.841 93.633,189.067 85.708,185.158 C77.783,181.250 70.566,179.688 69.589,181.669 ZM76.442,168.867 C75.337,170.780 80.646,175.913 88.298,180.331 C95.951,184.749 103.050,186.780 104.155,184.867 C105.259,182.954 99.951,177.821 92.298,173.403 C84.646,168.985 77.547,166.954 76.442,168.867 ZM84.084,156.475 C82.857,158.312 87.818,163.781 95.165,168.690 C102.513,173.600 109.464,176.091 110.691,174.254 C111.918,172.417 106.957,166.948 99.610,162.039 C92.263,157.129 85.311,154.639 84.084,156.475 ZM92.554,144.675 C91.209,146.428 95.802,152.209 102.812,157.589 C109.823,162.968 116.596,165.908 117.941,164.156 C119.286,162.403 114.693,156.621 107.682,151.242 C100.672,145.863 93.899,142.923 92.554,144.675 ZM101.629,133.518 C100.172,135.179 104.377,141.248 111.021,147.075 C117.665,152.901 124.231,156.278 125.688,154.617 C127.144,152.956 122.939,146.886 116.296,141.060 C109.652,135.234 103.086,131.857 101.629,133.518 ZM111.563,122.914 C110.001,124.476 113.800,130.808 120.048,137.056 C126.296,143.305 132.628,147.104 134.190,145.542 C135.752,143.980 131.953,137.648 125.705,131.400 C119.456,125.151 113.125,121.352 111.563,122.914 ZM122.414,112.899 C120.754,114.355 124.130,120.922 129.957,127.566 C135.783,134.209 141.853,138.414 143.513,136.958 C145.174,135.501 141.798,128.935 135.971,122.291 C130.145,115.647 124.075,111.442 122.414,112.899 ZM133.652,103.699 C131.900,105.044 134.840,111.817 140.219,118.828 C145.598,125.838 151.380,130.431 153.133,129.086 C154.885,127.741 151.945,120.968 146.566,113.957 C141.186,106.947 135.405,102.354 133.652,103.699 ZM145.424,95.299 C143.587,96.526 146.078,103.478 150.987,110.825 C155.897,118.172 161.365,123.133 163.202,121.906 C165.039,120.679 162.548,113.728 157.639,106.380 C152.730,99.033 147.261,94.072 145.424,95.299 ZM157.763,87.642 C155.850,88.746 157.881,95.845 162.299,103.498 C166.718,111.151 171.850,116.459 173.763,115.354 C175.677,114.250 173.646,107.151 169.228,99.498 C164.809,91.845 159.677,86.537 157.763,87.642 ZM170.781,80.631 C168.799,81.608 170.362,88.825 174.270,96.750 C178.178,104.675 182.953,110.308 184.934,109.331 C186.915,108.354 185.353,101.137 181.445,93.212 C177.536,85.286 172.762,79.654 170.781,80.631 ZM184.025,74.663 C181.984,75.508 183.071,82.812 186.453,90.976 C189.834,99.140 194.230,105.073 196.271,104.227 C198.312,103.382 197.225,96.078 193.844,87.914 C190.462,79.751 186.066,73.818 184.025,74.663 ZM206.595,83.370 C203.755,75.003 199.756,68.795 197.664,69.505 C195.573,70.215 196.179,77.574 199.020,85.942 C201.860,94.309 205.859,100.517 207.950,99.807 C210.042,99.097 209.436,91.738 206.595,83.370 ZM219.584,79.739 C217.297,71.204 213.713,64.748 211.579,65.320 C209.445,65.891 209.569,73.274 211.857,81.810 C214.144,90.345 217.727,96.801 219.861,96.229 C221.995,95.657 221.871,88.275 219.584,79.739 ZM232.760,76.896 C231.036,68.229 227.882,61.552 225.715,61.984 C223.549,62.414 223.190,69.790 224.914,78.456 C226.638,87.123 229.792,93.800 231.958,93.369 C234.125,92.938 234.484,85.562 232.760,76.896 ZM246.116,74.990 C244.963,66.229 242.252,59.360 240.062,59.649 C237.872,59.937 237.031,67.273 238.185,76.034 C239.338,84.795 242.049,91.663 244.239,91.375 C246.429,91.087 247.270,83.751 246.116,74.990 ZM259.048,74.095 C258.470,65.277 256.215,58.246 254.010,58.391 C251.806,58.535 250.487,65.800 251.065,74.618 C251.643,83.436 253.899,90.467 256.103,90.322 C258.308,90.178 259.626,82.912 259.048,74.095 ZM268.531,57.914 C266.322,57.914 264.531,65.078 264.531,73.914 C264.531,82.751 266.322,89.914 268.531,89.914 C270.740,89.914 272.531,82.751 272.531,73.914 C272.531,65.078 270.740,57.914 268.531,57.914 ZM283.088,58.431 C280.884,58.286 278.629,65.317 278.051,74.135 C277.473,82.953 278.792,90.218 280.996,90.362 C283.201,90.507 285.456,83.476 286.034,74.658 C286.611,65.840 285.293,58.575 283.088,58.431 ZM297.547,59.856 C295.357,59.568 292.646,66.436 291.493,75.197 C290.340,83.958 291.180,91.294 293.370,91.583 C295.561,91.871 298.271,85.002 299.424,76.241 C300.578,67.480 299.737,60.144 297.547,59.856 ZM311.884,62.226 C309.717,61.795 306.563,68.471 304.839,77.138 C303.115,85.805 303.474,93.180 305.641,93.611 C307.808,94.042 310.962,87.365 312.686,78.699 C314.409,70.032 314.051,62.657 311.884,62.226 ZM326.032,65.526 C323.898,64.955 320.315,71.410 318.028,79.946 C315.740,88.481 315.616,95.864 317.750,96.436 C319.884,97.008 323.468,90.552 325.755,82.016 C328.042,73.481 328.166,66.098 326.032,65.526 ZM339.983,69.819 C337.892,69.109 333.893,75.317 331.053,83.684 C328.212,92.052 327.605,99.411 329.697,100.121 C331.789,100.831 335.788,94.623 338.628,86.256 C341.469,77.888 342.075,70.529 339.983,69.819 ZM353.575,74.941 C351.534,74.096 347.138,80.029 343.757,88.193 C340.375,96.356 339.288,103.660 341.329,104.505 C343.370,105.351 347.766,99.418 351.148,91.254 C354.529,83.090 355.616,75.787 353.575,74.941 ZM366.815,81.011 C364.834,80.034 360.059,85.666 356.151,93.592 C352.243,101.517 350.681,108.734 352.662,109.711 C354.643,110.688 359.418,105.055 363.326,97.130 C367.234,89.205 368.796,81.988 366.815,81.011 ZM379.617,87.864 C377.704,86.759 372.571,92.068 368.153,99.720 C363.735,107.373 361.704,114.472 363.617,115.577 C365.531,116.681 370.663,111.373 375.081,103.720 C379.500,96.068 381.531,88.968 379.617,87.864 ZM392.009,95.506 C390.172,94.279 384.703,99.240 379.794,106.587 C374.885,113.934 372.394,120.886 374.231,122.113 C376.068,123.340 381.536,118.379 386.446,111.032 C391.355,103.684 393.846,96.733 392.009,95.506 ZM403.809,103.976 C402.057,102.631 396.275,107.224 390.896,114.234 C385.516,121.245 382.576,128.018 384.329,129.363 C386.081,130.708 391.863,126.115 397.242,119.104 C402.622,112.094 405.562,105.320 403.809,103.976 ZM435.586,133.836 C434.129,132.175 427.562,135.552 420.919,141.378 C420.217,141.994 419.550,142.611 418.907,143.226 C419.321,140.126 419.733,137.010 420.118,133.867 C424.493,128.810 426.859,124.273 425.570,122.985 C424.891,122.305 423.308,122.642 421.223,123.751 C421.339,122.506 421.447,121.256 421.546,120.000 C417.265,121.870 413.044,123.881 408.873,125.999 C413.790,119.977 416.484,114.381 414.966,113.051 C413.306,111.594 407.236,115.799 401.410,122.443 C397.439,126.970 394.611,131.459 393.734,134.322 C388.602,137.367 383.567,140.589 378.624,143.951 C348.558,119.598 310.268,105.000 268.562,105.000 C171.913,105.000 93.563,183.350 93.563,280.000 C93.563,285.404 93.821,290.748 94.300,296.027 L79.616,303.616 C78.078,301.920 71.401,301.355 63.570,302.386 C54.809,303.539 47.940,306.250 48.229,308.440 C48.517,310.630 55.853,311.471 64.614,310.317 C68.572,309.796 72.135,308.956 74.835,307.991 C81.956,310.293 89.555,313.357 97.525,317.139 C114.558,395.947 184.658,455.000 268.562,455.000 C365.212,455.000 443.563,376.650 443.563,280.000 C443.563,244.907 433.225,212.232 415.441,184.838 C415.200,174.345 416.217,164.041 417.535,153.636 C420.076,152.245 423.123,150.086 426.193,147.393 C432.837,141.567 437.042,135.497 435.586,133.836 ZM444.786,145.074 C443.441,143.321 436.667,146.261 429.657,151.641 C422.646,157.020 418.053,162.802 419.398,164.554 C420.743,166.307 427.516,163.367 434.527,157.988 C441.537,152.608 446.130,146.827 444.786,145.074 ZM453.185,156.846 C451.958,155.009 445.007,157.500 437.659,162.409 C430.312,167.318 425.351,172.787 426.578,174.624 C427.806,176.461 434.757,173.970 442.104,169.061 C449.451,164.151 454.413,158.683 453.185,156.846 ZM460.843,169.185 C459.738,167.272 452.639,169.303 444.986,173.721 C437.334,178.140 432.025,183.272 433.130,185.185 C434.234,187.099 441.334,185.068 448.986,180.649 C456.639,176.231 461.947,171.099 460.843,169.185 ZM467.854,182.203 C466.877,180.221 459.660,181.783 451.734,185.692 C443.809,189.600 438.177,194.375 439.154,196.356 C440.131,198.337 447.348,196.775 455.273,192.867 C463.198,188.958 468.831,184.184 467.854,182.203 ZM473.821,195.447 C472.976,193.406 465.672,194.493 457.508,197.875 C449.345,201.256 443.412,205.652 444.257,207.693 C445.103,209.734 452.406,208.647 460.570,205.266 C468.734,201.884 474.667,197.488 473.821,195.447 ZM478.979,209.086 C478.269,206.994 470.910,207.601 462.543,210.442 C454.175,213.282 447.967,217.280 448.678,219.372 C449.388,221.464 456.747,220.857 465.114,218.017 C473.482,215.177 479.689,211.178 478.979,209.086 ZM483.165,223.001 C482.593,220.867 475.210,220.991 466.675,223.278 C458.139,225.565 451.683,229.149 452.255,231.283 C452.827,233.417 460.210,233.293 468.745,231.006 C477.281,228.719 483.737,225.135 483.165,223.001 ZM470.028,236.336 C461.361,238.060 454.685,241.214 455.116,243.380 C455.547,245.547 462.922,245.906 471.589,244.182 C480.255,242.458 486.932,239.304 486.501,237.137 C486.070,234.971 478.695,234.612 470.028,236.336 ZM472.451,249.607 C463.690,250.760 456.821,253.471 457.109,255.661 C457.398,257.851 464.734,258.691 473.495,257.538 C482.256,256.385 489.124,253.674 488.836,251.484 C488.547,249.294 481.211,248.453 472.451,249.607 ZM473.866,262.487 C465.049,263.065 458.018,265.321 458.162,267.525 C458.307,269.729 465.572,271.048 474.390,270.470 C483.207,269.892 490.238,267.637 490.094,265.432 C489.949,263.228 482.684,261.909 473.866,262.487 ZM490.570,279.953 C490.570,277.744 483.407,275.953 474.570,275.953 C465.734,275.953 458.570,277.744 458.570,279.953 C458.570,282.162 465.734,283.953 474.570,283.953 C483.407,283.953 490.570,282.162 490.570,279.953 ZM490.085,294.518 C490.229,292.314 483.198,290.058 474.381,289.481 C465.563,288.903 458.298,290.221 458.153,292.426 C458.009,294.630 465.040,296.886 473.858,297.463 C482.675,298.041 489.940,296.723 490.085,294.518 ZM488.659,308.976 C488.948,306.786 482.079,304.076 473.318,302.923 C464.557,301.769 457.221,302.610 456.933,304.800 C456.645,306.990 463.513,309.701 472.274,310.854 C481.035,312.007 488.371,311.167 488.659,308.976 ZM486.290,323.314 C486.721,321.147 480.044,317.993 471.378,316.269 C462.711,314.545 455.336,314.904 454.905,317.071 C454.474,319.237 461.150,322.391 469.817,324.115 C478.484,325.839 485.859,325.480 486.290,323.314 ZM482.989,337.462 C483.561,335.328 477.105,331.744 468.570,329.457 C460.034,327.170 452.651,327.046 452.080,329.180 C451.508,331.314 457.964,334.898 466.499,337.185 C475.035,339.472 482.417,339.596 482.989,337.462 ZM478.697,351.413 C479.407,349.321 473.199,345.323 464.831,342.482 C456.464,339.642 449.105,339.035 448.395,341.127 C447.685,343.219 453.892,347.217 462.260,350.058 C470.628,352.898 477.986,353.505 478.697,351.413 ZM473.574,365.005 C474.420,362.964 468.487,358.568 460.323,355.186 C452.159,351.805 444.856,350.718 444.010,352.759 C443.165,354.800 449.098,359.196 457.262,362.577 C465.426,365.959 472.729,367.046 473.574,365.005 ZM467.505,378.245 C468.482,376.263 462.849,371.489 454.924,367.581 C446.999,363.672 439.782,362.110 438.805,364.091 C437.828,366.073 443.460,370.847 451.386,374.756 C459.311,378.664 466.528,380.226 467.505,378.245 ZM460.652,391.047 C461.756,389.134 456.448,384.001 448.795,379.583 C441.143,375.165 434.044,373.134 432.939,375.047 C431.834,376.960 437.143,382.093 444.795,386.511 C452.448,390.929 459.547,392.960 460.652,391.047 ZM453.010,403.439 C454.237,401.602 449.276,396.133 441.929,391.224 C434.581,386.314 427.630,383.824 426.403,385.660 C425.175,387.497 430.137,392.966 437.484,397.875 C444.831,402.785 451.782,405.275 453.010,403.439 ZM444.540,415.239 C445.885,413.486 441.292,407.705 434.281,402.325 C427.271,396.946 420.497,394.006 419.153,395.759 C417.808,397.511 422.401,403.293 429.411,408.672 C436.422,414.052 443.195,416.992 444.540,415.239 ZM435.465,426.396 C436.921,424.735 432.716,418.666 426.073,412.839 C419.429,407.013 412.862,403.636 411.406,405.297 C409.949,406.958 414.154,413.028 420.798,418.854 C427.442,424.680 434.008,428.057 435.465,426.396 ZM219.978,335.478 L171.842,255.957 L101.029,292.551 C100.723,288.407 100.562,284.222 100.562,280.000 C100.562,187.216 175.779,112.000 268.562,112.000 C307.869,112.000 344.019,125.502 372.637,148.117 C277.893,215.829 219.978,335.478 219.978,335.478 ZM225.995,415.000 C262.096,358.565 373.410,243.130 427.563,232.870 C421.898,221.831 418.643,211.351 416.948,201.176 C429.462,224.684 436.562,251.511 436.562,280.000 C436.562,372.784 361.346,448.000 268.562,448.000 C189.988,448.000 124.020,394.055 105.656,321.182 C143.062,340.551 187.131,374.065 225.995,415.000 ZM268.562,517.000 C373.885,517.000 463.145,448.290 494.005,353.256 L534.872,366.534 C534.868,366.544 534.866,366.554 534.862,366.564 C525.569,395.166 490.523,405.309 473.728,428.387 C473.706,428.419 472.718,429.830 471.558,431.489 C456.423,454.575 456.736,489.172 433.396,506.352 L433.546,506.558 C433.537,506.564 433.529,506.570 433.521,506.577 C409.205,524.265 374.889,511.834 347.747,520.629 C347.710,520.641 346.081,521.202 344.169,521.862 C318.281,531.674 298.176,560.033 269.051,560.016 C269.040,560.016 269.030,560.016 269.019,560.016 L268.562,559.950 L268.562,560.010 C268.552,560.010 268.542,560.010 268.531,560.010 C238.458,560.010 217.981,529.814 190.843,520.973 C190.806,520.961 189.158,520.458 187.222,519.867 C160.503,512.584 127.568,523.674 104.002,506.551 C103.993,506.545 103.985,506.539 103.977,506.533 L129.258,471.737 C168.362,500.197 216.496,517.000 268.562,517.000 Z" class="cls-1"/>
  </g>
</svg>
