<svg xmlns="http://www.w3.org/2000/svg" xmlns:xlink="http://www.w3.org/1999/xlink" preserveAspectRatio="xMidYMid" width="450" height="70" viewBox="0 0 450 70">
  <defs>
    <style>
      .cls-1 {
        fill: #e9f2c2;
        filter: url(#drop-shadow-1);
        fill-rule: evenodd;
      }
    </style>

    <clipPath id="clip-path-1">
      <rect x="-23.406" y="-15.406" width="1920" height="2304"/>
    </clipPath>
    <filter id="drop-shadow-1" filterUnits="userSpaceOnUse">
      <feOffset dx="-2" dy="3.464" in="SourceAlpha"/>
      <feGaussianBlur result="dropBlur"/>
      <feFlood flood-color="#45074c"/>
      <feComposite operator="in" in2="dropBlur" result="dropShadowComp"/>
      <feOffset dx="-1" dy="1.732" in="SourceAlpha"/>
      <feGaussianBlur result="dropBlur-1"/>
      <feFlood flood-color="#0d060d"/>
      <feComposite operator="in" in2="dropBlur-1" result="dropShadowComp-1"/>
      <feBlend in2="dropShadowComp" result="dropShadowBlend-1"/>
      <feComposite in="SourceGraphic" result="shadowed"/>
    </filter>
  </defs>
  <g clip-path="url(#clip-path-1)">
    <path d="M431.764,47.044 C430.965,47.780 430.090,48.416 429.139,48.951 C428.188,49.487 427.192,49.910 426.154,50.223 C425.115,50.535 424.070,50.691 423.021,50.691 C421.533,50.691 420.144,50.495 418.854,50.105 C417.563,49.715 416.437,49.119 415.475,48.316 C414.760,47.719 414.161,47.008 413.676,46.185 C413.517,46.451 413.360,46.719 413.195,46.977 C412.724,47.713 412.194,48.361 411.604,48.918 C411.013,49.475 410.346,49.921 409.602,50.256 C408.859,50.591 408.006,50.758 407.043,50.758 C405.950,50.758 405.009,50.484 404.222,49.938 C403.435,49.392 402.762,48.667 402.204,47.764 C401.647,46.860 401.198,45.829 400.859,44.669 C400.520,43.510 400.241,42.327 400.023,41.123 C399.804,39.918 399.640,38.731 399.531,37.560 C399.421,36.389 399.323,35.335 399.235,34.398 C398.820,34.733 398.317,35.374 397.726,36.322 C397.136,37.270 396.534,38.379 395.922,39.651 C395.309,40.922 394.724,42.305 394.167,43.799 C393.609,45.294 393.155,46.766 392.805,48.215 C392.740,48.528 392.635,48.851 392.493,49.185 C392.351,49.520 392.176,49.826 391.969,50.105 C391.760,50.384 391.514,50.618 391.230,50.808 C390.946,50.997 390.629,51.092 390.279,51.092 C389.710,51.092 389.300,50.892 389.049,50.490 C388.797,50.089 388.617,49.631 388.507,49.119 C388.215,47.815 387.969,46.541 387.758,45.290 C387.435,45.846 387.067,46.390 386.605,46.911 C385.970,47.625 385.260,48.265 384.472,48.834 C383.685,49.403 382.853,49.855 381.979,50.189 C381.104,50.524 380.240,50.691 379.387,50.691 C378.206,50.691 377.227,50.328 376.451,49.604 C375.674,48.879 375.100,48.004 374.728,46.977 C373.875,47.847 372.935,48.567 371.907,49.135 C370.879,49.704 369.742,49.988 368.495,49.988 C367.380,49.988 366.390,49.782 365.526,49.369 C364.662,48.957 363.946,48.394 363.377,47.680 C362.808,46.966 362.377,46.141 362.081,45.204 C361.786,44.268 361.638,43.264 361.638,42.193 C361.638,40.989 361.802,39.813 362.130,38.664 C362.459,37.515 362.918,36.422 363.508,35.385 C364.099,34.348 364.799,33.384 365.608,32.491 C366.417,31.600 367.292,30.808 368.233,30.116 L368.626,30.417 C367.708,31.755 366.975,33.233 366.428,34.850 C365.881,36.467 365.608,38.112 365.608,39.785 C365.608,40.499 365.684,41.257 365.838,42.060 C365.990,42.862 366.242,43.610 366.592,44.301 C366.942,44.993 367.407,45.567 367.987,46.024 C368.566,46.481 369.293,46.710 370.168,46.710 C370.912,46.710 371.622,46.582 372.301,46.325 C372.978,46.069 373.634,45.718 374.269,45.271 C374.225,45.004 374.192,44.742 374.171,44.485 C374.149,44.229 374.138,43.966 374.138,43.699 C374.138,42.628 374.291,41.469 374.597,40.219 C374.903,38.971 375.308,37.727 375.811,36.489 C376.314,35.251 376.888,34.069 377.533,32.943 C378.178,31.817 378.840,30.852 379.518,30.049 L379.912,30.350 C379.409,32.068 378.993,33.841 378.665,35.670 C378.337,37.499 378.173,39.305 378.173,41.089 C378.173,41.892 378.222,42.667 378.321,43.414 C378.419,44.162 378.627,44.831 378.944,45.422 C379.261,46.013 379.704,46.481 380.273,46.827 C380.841,47.173 381.596,47.345 382.537,47.345 C383.586,47.345 384.571,47.073 385.489,46.526 C386.305,46.040 387.030,45.457 387.673,44.787 C387.466,43.493 387.299,42.226 387.179,40.989 C386.927,38.402 386.801,35.815 386.801,33.227 C386.801,32.603 386.905,32.062 387.113,31.605 C387.321,31.148 387.600,30.768 387.950,30.467 C388.299,30.166 388.715,29.944 389.196,29.798 C389.677,29.653 390.181,29.581 390.705,29.581 C390.771,29.581 390.875,29.581 391.017,29.581 C391.159,29.581 391.296,29.597 391.427,29.631 C391.558,29.664 391.668,29.715 391.755,29.781 C391.842,29.848 391.875,29.938 391.854,30.049 C391.285,32.971 391.012,35.943 391.034,38.965 C391.055,41.987 391.208,44.892 391.493,47.680 C391.733,46.565 392.089,45.299 392.559,43.883 C393.029,42.467 393.576,41.039 394.199,39.601 C394.823,38.162 395.500,36.790 396.234,35.486 C396.966,34.181 397.715,33.083 398.481,32.190 C398.852,31.767 399.230,31.404 399.613,31.103 C399.995,30.802 400.471,30.651 401.040,30.651 C401.368,30.651 401.641,30.718 401.860,30.852 C402.078,30.986 402.259,31.153 402.401,31.354 C402.543,31.555 402.652,31.784 402.729,32.040 C402.806,32.296 402.866,32.547 402.910,32.792 C403.019,33.440 403.128,34.276 403.238,35.302 C403.347,36.328 403.484,37.421 403.648,38.580 C403.812,39.740 404.014,40.905 404.255,42.076 C404.495,43.247 404.801,44.307 405.173,45.254 C405.545,46.203 405.994,46.977 406.519,47.580 C407.043,48.182 407.667,48.483 408.389,48.483 C408.979,48.483 409.553,48.366 410.111,48.132 C410.669,47.897 411.199,47.596 411.702,47.228 C412.205,46.860 412.675,46.437 413.113,45.957 C413.214,45.846 413.290,45.738 413.386,45.628 C413.329,45.514 413.264,45.406 413.211,45.288 C412.664,44.073 412.391,42.651 412.391,41.022 C412.391,39.417 412.681,37.917 413.260,36.523 C413.840,35.129 414.638,33.913 415.655,32.876 C416.672,31.839 417.870,31.019 419.248,30.417 C420.626,29.815 422.102,29.514 423.677,29.514 C424.420,29.514 425.115,29.620 425.760,29.832 C426.405,30.044 426.968,30.356 427.450,30.768 C427.930,31.181 428.308,31.688 428.581,32.291 C428.855,32.893 428.991,33.584 428.991,34.365 C428.991,35.302 428.805,36.127 428.434,36.841 C428.062,37.555 427.569,38.179 426.957,38.714 C426.345,39.249 425.650,39.696 424.874,40.052 C424.098,40.409 423.288,40.699 422.446,40.922 C421.604,41.145 420.773,41.307 419.953,41.407 C419.133,41.508 418.383,41.558 417.706,41.558 L416.918,41.558 C417.202,43.587 417.990,45.137 419.281,46.208 C420.571,47.279 422.353,47.814 424.628,47.814 C426.246,47.814 427.827,47.524 429.369,46.944 C430.911,46.364 432.305,45.561 433.552,44.535 L433.814,44.669 C433.245,45.517 432.562,46.308 431.764,47.044 ZM417.640,40.554 C418.428,40.554 419.236,40.426 420.068,40.169 C420.899,39.913 421.648,39.534 422.315,39.032 C422.982,38.530 423.534,37.911 423.972,37.175 C424.409,36.439 424.628,35.603 424.628,34.666 C424.628,33.752 424.436,32.993 424.054,32.391 C423.671,31.789 423.009,31.488 422.069,31.488 C421.106,31.488 420.292,31.784 419.625,32.374 C418.958,32.965 418.416,33.690 418.001,34.549 C417.585,35.408 417.284,36.311 417.099,37.259 C416.913,38.207 416.820,39.049 416.820,39.785 L416.820,40.554 L417.640,40.554 ZM366.199,53.802 C366.964,53.178 367.609,52.408 368.134,51.494 L368.692,51.728 C368.451,53.334 367.910,54.733 367.068,55.927 C366.226,57.120 365.209,58.101 364.017,58.871 C362.825,59.640 361.512,60.214 360.080,60.594 C358.647,60.973 357.209,61.162 355.766,61.162 C354.738,61.162 353.677,61.029 352.584,60.761 C351.490,60.493 350.391,60.203 349.286,59.891 C348.182,59.579 347.099,59.289 346.039,59.021 C344.977,58.754 343.966,58.620 343.004,58.620 C342.545,58.620 342.058,58.675 341.544,58.787 C341.030,58.898 340.527,59.055 340.035,59.255 C339.543,59.456 339.089,59.707 338.673,60.008 C338.258,60.309 337.930,60.649 337.689,61.029 L337.164,60.761 C337.251,59.824 337.487,58.965 337.870,58.185 C338.252,57.404 338.744,56.724 339.346,56.144 C339.947,55.564 340.636,55.112 341.413,54.789 C342.189,54.466 343.037,54.304 343.955,54.304 C344.174,54.304 344.387,54.304 344.595,54.304 C344.803,54.304 345.016,54.315 345.235,54.338 C344.316,52.107 343.556,49.659 342.955,46.994 C342.353,44.329 341.877,41.608 341.528,38.831 C341.177,36.054 340.931,33.294 340.789,30.551 C340.647,27.808 340.576,25.243 340.576,22.856 C340.576,22.053 340.593,21.117 340.625,20.046 C340.658,18.975 340.729,17.844 340.839,16.650 C340.948,15.457 341.106,14.258 341.314,13.054 C341.522,11.850 341.812,10.712 342.184,9.641 C342.555,8.571 343.015,7.612 343.562,6.764 C344.108,5.917 344.775,5.259 345.563,4.790 C345.978,4.545 346.410,4.322 346.859,4.121 C347.307,3.921 347.772,3.820 348.253,3.820 C348.559,3.820 348.827,3.893 349.057,4.038 C349.286,4.183 349.401,4.434 349.401,4.790 C349.401,4.991 349.374,5.175 349.319,5.342 C349.264,5.510 349.204,5.683 349.139,5.861 C348.789,6.664 348.433,7.445 348.073,8.203 C347.712,8.961 347.411,9.742 347.170,10.545 C346.601,12.485 346.137,14.593 345.776,16.868 C345.415,19.143 345.147,21.518 344.972,23.994 C344.797,26.469 344.699,29.018 344.677,31.638 C344.655,34.259 344.704,36.869 344.825,39.467 C344.945,42.065 345.114,44.630 345.333,47.161 C345.552,49.693 345.814,52.118 346.121,54.438 C347.039,54.572 347.974,54.744 348.926,54.956 C349.877,55.168 350.839,55.380 351.813,55.592 C352.786,55.804 353.775,55.988 354.782,56.144 C355.787,56.300 356.816,56.378 357.866,56.378 C358.850,56.378 359.839,56.295 360.835,56.127 C361.830,55.960 362.781,55.687 363.689,55.308 C364.596,54.928 365.433,54.426 366.199,53.802 ZM319.366,48.951 C318.415,49.487 317.419,49.910 316.381,50.223 C315.342,50.535 314.298,50.691 313.248,50.691 C311.760,50.691 310.372,50.495 309.081,50.105 C307.791,49.715 306.664,49.119 305.702,48.316 C304.971,47.706 304.361,46.975 303.870,46.127 C303.733,46.310 303.590,46.489 303.438,46.660 C302.914,47.251 302.323,47.753 301.667,48.165 C301.011,48.578 300.311,48.896 299.567,49.119 C298.823,49.342 298.047,49.453 297.238,49.453 C295.532,49.453 294.083,49.030 292.891,48.182 C291.699,47.334 290.698,46.230 289.889,44.870 C289.299,45.539 288.648,46.203 287.937,46.860 C287.226,47.518 286.472,48.098 285.673,48.600 C284.875,49.102 284.049,49.509 283.196,49.821 C282.343,50.133 281.490,50.289 280.637,50.289 C279.609,50.289 278.691,50.077 277.882,49.654 C277.072,49.230 276.383,48.667 275.815,47.964 C275.246,47.262 274.809,46.459 274.503,45.556 C274.196,44.652 274.043,43.710 274.043,42.729 C274.043,41.257 274.366,39.774 275.011,38.279 C275.656,36.785 276.509,35.430 277.570,34.214 C278.631,32.999 279.850,32.012 281.228,31.253 C282.606,30.496 284.038,30.116 285.526,30.116 C285.963,30.116 286.346,30.161 286.674,30.250 L286.674,28.845 C286.674,28.198 286.696,27.339 286.740,26.269 C286.783,25.198 286.871,24.010 287.002,22.706 C287.133,21.401 287.302,20.029 287.511,18.591 C287.718,17.152 287.991,15.725 288.331,14.308 C288.670,12.892 289.069,11.543 289.528,10.260 C289.988,8.978 290.523,7.852 291.136,6.881 C291.748,5.911 292.448,5.137 293.235,4.556 C294.023,3.977 294.909,3.686 295.893,3.686 C297.052,3.686 297.992,4.033 298.714,4.724 C299.436,5.415 300.004,6.268 300.420,7.283 C300.835,8.298 301.114,9.374 301.257,10.511 C301.399,11.649 301.470,12.664 301.470,13.556 C301.470,14.716 301.360,16.060 301.142,17.587 C300.923,19.115 300.617,20.732 300.223,22.438 C299.830,24.144 299.359,25.890 298.813,27.674 C298.266,29.458 297.675,31.176 297.041,32.826 C296.406,34.477 295.723,36.010 294.991,37.426 C294.258,38.843 293.519,40.041 292.776,41.022 C293.060,41.892 293.405,42.695 293.810,43.431 C294.214,44.167 294.690,44.803 295.237,45.338 C295.783,45.873 296.406,46.292 297.107,46.593 C297.806,46.894 298.605,47.044 299.502,47.044 C301.080,47.044 302.438,46.546 303.578,45.560 C303.533,45.468 303.481,45.383 303.438,45.288 C302.891,44.073 302.618,42.651 302.618,41.022 C302.618,39.417 302.908,37.917 303.488,36.523 C304.067,35.129 304.866,33.913 305.883,32.876 C306.900,31.839 308.097,31.019 309.475,30.417 C310.853,29.815 312.329,29.514 313.904,29.514 C314.647,29.514 315.342,29.620 315.987,29.832 C316.632,30.044 317.195,30.356 317.677,30.768 C318.158,31.181 318.535,31.688 318.809,32.291 C319.082,32.893 319.219,33.584 319.219,34.365 C319.219,35.302 319.033,36.127 318.661,36.841 C318.289,37.555 317.797,38.179 317.185,38.714 C316.572,39.249 315.877,39.696 315.101,40.052 C314.325,40.409 313.515,40.699 312.674,40.922 C311.831,41.145 311.000,41.307 310.180,41.407 C309.360,41.508 308.611,41.558 307.933,41.558 L307.146,41.558 C307.430,43.587 308.217,45.137 309.508,46.208 C310.798,47.279 312.580,47.814 314.855,47.814 C316.474,47.814 318.054,47.524 319.596,46.944 C321.138,46.364 322.532,45.561 323.779,44.535 L324.041,44.669 C323.472,45.517 322.789,46.308 321.991,47.044 C321.192,47.780 320.318,48.416 319.366,48.951 ZM288.331,41.307 C288.035,40.359 287.784,39.400 287.576,38.430 C287.368,37.459 287.204,36.484 287.084,35.502 C286.964,34.521 286.871,33.573 286.805,32.659 C286.543,32.369 286.215,32.129 285.821,31.939 C285.427,31.750 284.946,31.655 284.377,31.655 C283.349,31.655 282.436,31.939 281.638,32.508 C280.839,33.077 280.167,33.791 279.620,34.649 C279.074,35.508 278.658,36.445 278.374,37.459 C278.089,38.475 277.947,39.439 277.947,40.353 C277.947,41.201 278.040,42.009 278.226,42.779 C278.412,43.548 278.713,44.217 279.128,44.786 C279.544,45.355 280.074,45.806 280.719,46.141 C281.364,46.476 282.135,46.643 283.032,46.643 C284.279,46.643 285.432,46.398 286.494,45.907 C287.554,45.417 288.522,44.769 289.397,43.966 C288.981,43.142 288.626,42.255 288.331,41.307 ZM294.843,33.478 C295.608,31.326 296.270,29.118 296.828,26.854 C297.386,24.591 297.817,22.332 298.124,20.079 C298.430,17.827 298.583,15.697 298.583,13.690 C298.583,13.266 298.561,12.652 298.517,11.850 C298.473,11.047 298.353,10.249 298.157,9.457 C297.960,8.666 297.664,7.974 297.271,7.383 C296.877,6.793 296.341,6.497 295.663,6.497 C295.138,6.497 294.668,6.748 294.252,7.249 C293.837,7.751 293.476,8.420 293.170,9.257 C292.863,10.093 292.606,11.047 292.399,12.117 C292.191,13.188 292.016,14.303 291.874,15.463 C291.731,16.623 291.622,17.771 291.546,18.909 C291.469,20.046 291.415,21.100 291.382,22.070 C291.349,23.040 291.327,23.877 291.316,24.579 C291.305,25.282 291.300,25.767 291.300,26.034 C291.300,26.837 291.300,27.769 291.300,28.828 C291.300,29.888 291.327,31.008 291.382,32.190 C291.436,33.373 291.535,34.582 291.677,35.820 C291.819,37.058 292.032,38.257 292.317,39.417 C293.235,37.610 294.077,35.631 294.843,33.478 ZM307.867,40.554 C308.655,40.554 309.464,40.426 310.295,40.169 C311.126,39.913 311.875,39.534 312.542,39.032 C313.209,38.530 313.761,37.911 314.199,37.175 C314.636,36.439 314.855,35.603 314.855,34.666 C314.855,33.752 314.664,32.993 314.281,32.391 C313.898,31.789 313.237,31.488 312.296,31.488 C311.334,31.488 310.519,31.784 309.852,32.374 C309.185,32.965 308.644,33.690 308.228,34.549 C307.813,35.408 307.512,36.311 307.326,37.259 C307.140,38.207 307.047,39.049 307.047,39.785 L307.047,40.554 L307.867,40.554 ZM252.981,48.215 C252.237,48.974 251.368,49.575 250.373,50.022 C249.377,50.468 248.300,50.691 247.141,50.691 C246.376,50.691 245.621,50.568 244.878,50.323 C244.134,50.077 243.451,49.726 242.827,49.269 C242.204,48.812 241.663,48.260 241.203,47.613 C240.744,46.966 240.416,46.253 240.219,45.472 L240.974,45.271 C241.542,45.985 242.204,46.576 242.958,47.044 C243.713,47.513 244.571,47.747 245.534,47.747 C246.343,47.747 247.092,47.569 247.781,47.212 C248.470,46.855 249.061,46.387 249.553,45.806 C250.045,45.227 250.427,44.552 250.701,43.782 C250.974,43.013 251.111,42.227 251.111,41.424 C251.111,40.465 250.980,39.667 250.717,39.032 C250.455,38.396 250.110,37.861 249.684,37.426 C249.257,36.991 248.782,36.612 248.257,36.288 C247.732,35.965 247.201,35.636 246.666,35.302 C246.129,34.967 245.616,34.588 245.124,34.164 C244.632,33.741 244.210,33.194 243.861,32.525 C243.839,33.841 243.620,35.224 243.204,36.673 C242.789,38.123 242.225,39.528 241.515,40.889 C240.804,42.249 239.989,43.521 239.071,44.702 C238.152,45.885 237.179,46.877 236.151,47.680 L236.046,47.492 C235.390,48.040 234.688,48.528 233.936,48.951 C232.985,49.487 231.990,49.910 230.951,50.223 C229.912,50.535 228.868,50.691 227.818,50.691 C226.330,50.691 224.942,50.495 223.651,50.105 C222.361,49.715 221.234,49.119 220.272,48.316 C219.310,47.513 218.555,46.504 218.009,45.288 C217.462,44.073 217.188,42.651 217.188,41.022 C217.188,39.417 217.478,37.917 218.058,36.523 C218.637,35.129 219.436,33.913 220.453,32.876 C221.470,31.839 222.667,31.019 224.045,30.417 C225.423,29.815 226.899,29.514 228.474,29.514 C229.217,29.514 229.912,29.620 230.557,29.832 C231.202,30.044 231.766,30.356 232.247,30.768 C232.728,31.181 233.105,31.688 233.379,32.291 C233.652,32.893 233.789,33.584 233.789,34.365 C233.789,35.302 233.603,36.127 233.231,36.841 C232.859,37.555 232.367,38.179 231.755,38.714 C231.142,39.249 230.448,39.696 229.672,40.052 C228.895,40.409 228.086,40.699 227.244,40.922 C226.402,41.145 225.571,41.307 224.750,41.407 C223.930,41.508 223.181,41.558 222.503,41.558 L221.716,41.558 C222.000,43.587 222.787,45.137 224.078,46.208 C225.368,47.279 227.151,47.814 229.425,47.814 C231.044,47.814 232.624,47.524 234.166,46.944 C235.252,46.536 236.260,46.011 237.200,45.381 C237.383,45.060 237.560,44.727 237.726,44.368 C238.251,43.230 238.682,42.032 239.022,40.771 C239.360,39.512 239.612,38.246 239.776,36.974 C239.940,35.703 240.022,34.544 240.022,33.495 C240.022,32.938 239.967,32.391 239.858,31.856 C239.748,31.320 239.694,30.797 239.694,30.283 C239.694,29.659 239.875,29.179 240.235,28.845 C240.596,28.510 241.061,28.343 241.630,28.343 C242.067,28.343 242.417,28.443 242.680,28.644 C242.942,28.845 243.182,29.107 243.401,29.430 C243.620,29.754 243.839,30.122 244.057,30.534 C244.276,30.947 244.555,31.371 244.894,31.806 C245.233,32.240 245.659,32.664 246.174,33.077 C246.687,33.490 247.349,33.852 248.158,34.164 C249.099,34.521 250.001,34.928 250.865,35.385 C251.729,35.843 252.494,36.384 253.161,37.008 C253.828,37.632 254.359,38.374 254.753,39.233 C255.146,40.091 255.343,41.101 255.343,42.260 C255.343,43.420 255.135,44.513 254.720,45.539 C254.304,46.565 253.724,47.457 252.981,48.215 ZM222.438,40.554 C223.225,40.554 224.034,40.426 224.865,40.169 C225.696,39.913 226.445,39.534 227.113,39.032 C227.779,38.530 228.332,37.911 228.769,37.175 C229.207,36.439 229.425,35.603 229.425,34.666 C229.425,33.752 229.234,32.993 228.851,32.391 C228.468,31.789 227.807,31.488 226.867,31.488 C225.904,31.488 225.089,31.784 224.422,32.374 C223.755,32.965 223.214,33.690 222.798,34.549 C222.383,35.408 222.082,36.311 221.896,37.259 C221.710,38.207 221.617,39.049 221.617,39.785 L221.617,40.554 L222.438,40.554 ZM213.235,26.453 C212.262,28.516 211.119,30.389 209.807,32.073 C208.495,33.757 207.084,35.168 205.575,36.305 C205.881,37.800 206.247,39.255 206.674,40.671 C207.100,42.088 207.619,43.348 208.232,44.452 C208.844,45.556 209.549,46.448 210.348,47.128 C211.146,47.809 212.059,48.148 213.088,48.148 C214.115,48.148 215.001,47.937 215.745,47.513 C216.488,47.089 217.177,46.465 217.812,45.639 L218.107,45.773 C217.407,47.245 216.423,48.411 215.154,49.269 C213.886,50.127 212.442,50.557 210.824,50.557 C209.490,50.557 208.298,50.144 207.248,49.319 C206.198,48.494 205.274,47.412 204.476,46.074 C203.677,44.736 202.999,43.225 202.442,41.541 C201.884,39.857 201.425,38.145 201.064,36.406 C200.703,34.666 200.440,32.988 200.276,31.371 C200.112,29.754 200.030,28.343 200.030,27.139 C200.030,25.666 200.107,24.050 200.260,22.288 C200.413,20.526 200.664,18.747 201.014,16.951 C201.364,15.156 201.818,13.411 202.376,11.716 C202.934,10.021 203.611,8.521 204.410,7.216 C205.208,5.911 206.132,4.863 207.182,4.071 C208.232,3.280 209.435,2.884 210.791,2.884 C211.950,2.884 212.891,3.230 213.612,3.921 C214.334,4.612 214.903,5.465 215.318,6.480 C215.734,7.495 216.012,8.571 216.155,9.708 C216.297,10.846 216.368,11.861 216.368,12.753 C216.368,15.162 216.089,17.532 215.532,19.862 C214.974,22.193 214.208,24.390 213.235,26.453 ZM213.465,11.749 C213.454,11.281 213.416,10.779 213.350,10.244 C213.284,9.708 213.191,9.173 213.071,8.638 C212.951,8.103 212.787,7.617 212.579,7.183 C212.371,6.748 212.108,6.391 211.792,6.112 C211.474,5.833 211.097,5.694 210.660,5.694 C209.828,5.694 209.101,6.112 208.478,6.948 C207.855,7.785 207.319,8.850 206.871,10.143 C206.422,11.437 206.050,12.865 205.755,14.426 C205.460,15.987 205.225,17.487 205.050,18.925 C204.874,20.364 204.755,21.652 204.689,22.789 C204.623,23.927 204.590,24.708 204.590,25.131 C204.568,25.622 204.563,26.224 204.574,26.938 C204.585,27.652 204.618,28.438 204.672,29.296 C204.727,30.155 204.809,31.075 204.919,32.056 C205.028,33.038 205.170,34.042 205.345,35.067 C206.810,33.729 208.057,32.246 209.085,30.618 C210.113,28.990 210.955,27.234 211.611,25.349 C212.267,23.464 212.743,21.479 213.038,19.394 C213.334,17.308 213.481,15.140 213.481,12.887 C213.481,12.597 213.476,12.218 213.465,11.749 ZM201.999,44.669 C201.605,45.450 201.091,46.197 200.457,46.911 C199.822,47.625 199.117,48.265 198.341,48.834 C197.564,49.403 196.738,49.855 195.864,50.189 C194.989,50.524 194.125,50.691 193.272,50.691 C192.069,50.691 191.085,50.340 190.319,49.637 C189.554,48.935 189.029,48.048 188.745,46.977 C187.826,47.914 186.803,48.700 185.677,49.336 C184.550,49.972 183.364,50.289 182.118,50.289 C181.199,50.289 180.384,50.116 179.673,49.771 C178.962,49.425 178.366,48.963 177.885,48.383 C177.417,47.818 177.059,47.152 176.809,46.386 C176.649,46.584 176.499,46.788 176.327,46.977 C175.682,47.691 174.971,48.316 174.195,48.851 C173.418,49.386 172.581,49.804 171.685,50.105 C170.788,50.407 169.858,50.557 168.896,50.557 C167.474,50.557 166.223,50.311 165.140,49.821 C164.057,49.331 163.122,48.667 162.335,47.831 C161.547,46.994 160.891,46.019 160.366,44.903 C159.842,43.788 159.426,42.623 159.120,41.407 C158.813,40.192 158.595,38.948 158.464,37.677 C158.332,36.406 158.267,35.190 158.267,34.030 C158.267,32.960 158.310,31.861 158.398,30.735 C158.485,29.609 158.616,28.455 158.792,27.272 C158.114,27.295 157.452,27.306 156.807,27.306 C156.161,27.306 155.522,27.306 154.888,27.306 C154.472,27.306 154.002,27.295 153.477,27.272 C152.952,27.250 152.460,27.161 152.001,27.005 C151.541,26.849 151.159,26.615 150.852,26.302 C150.546,25.990 150.393,25.533 150.393,24.930 C150.393,24.596 150.454,24.328 150.573,24.128 C150.694,23.927 150.858,23.776 151.066,23.676 C151.274,23.576 151.514,23.509 151.787,23.475 C152.061,23.442 152.340,23.425 152.624,23.425 C152.952,23.425 153.729,23.481 154.953,23.592 C156.178,23.704 157.654,23.826 159.382,23.960 C159.929,21.329 160.634,18.741 161.498,16.199 C162.362,13.656 163.341,11.337 164.435,9.240 L164.894,9.240 C164.194,11.671 163.576,14.124 163.040,16.600 C162.504,19.076 162.105,21.585 161.843,24.128 C163.439,24.239 165.085,24.334 166.780,24.412 C168.475,24.490 170.132,24.529 171.751,24.529 C174.134,24.529 176.070,24.507 177.557,24.462 C179.044,24.418 180.215,24.362 181.068,24.295 C182.074,24.206 182.828,24.117 183.331,24.027 L183.463,24.596 C182.150,24.909 180.652,25.204 178.968,25.482 C177.284,25.762 175.491,26.007 173.588,26.218 C171.685,26.431 169.716,26.615 167.682,26.771 C165.648,26.927 163.625,27.050 161.613,27.139 C161.569,27.585 161.547,28.037 161.547,28.493 C161.547,28.951 161.547,29.402 161.547,29.848 C161.547,30.919 161.597,32.101 161.695,33.395 C161.794,34.688 161.974,35.987 162.236,37.292 C162.499,38.597 162.854,39.868 163.303,41.106 C163.751,42.344 164.341,43.437 165.074,44.385 C165.807,45.333 166.687,46.097 167.715,46.676 C168.743,47.257 169.957,47.546 171.357,47.546 C172.647,47.546 173.812,47.257 174.851,46.676 C175.451,46.341 176.034,45.956 176.602,45.531 C176.488,44.980 176.409,44.419 176.409,43.833 C176.409,42.829 176.568,41.798 176.885,40.738 C177.202,39.679 177.639,38.636 178.197,37.610 C178.755,36.584 179.416,35.614 180.182,34.699 C180.947,33.785 181.784,32.982 182.692,32.291 C183.599,31.600 184.556,31.053 185.562,30.651 C186.568,30.250 187.596,30.049 188.646,30.049 C188.887,30.049 189.182,30.077 189.532,30.133 C189.882,30.189 190.221,30.283 190.549,30.417 C190.877,30.551 191.156,30.741 191.386,30.986 C191.615,31.232 191.730,31.544 191.730,31.923 C191.730,32.168 191.642,32.386 191.468,32.575 C191.292,32.765 191.085,32.859 190.844,32.859 C190.647,32.859 190.439,32.798 190.221,32.675 C190.002,32.553 189.756,32.413 189.483,32.257 C189.209,32.101 188.892,31.962 188.531,31.839 C188.171,31.717 187.760,31.655 187.301,31.655 C186.229,31.655 185.272,31.995 184.430,32.675 C183.588,33.356 182.877,34.198 182.298,35.201 C181.718,36.205 181.275,37.275 180.969,38.413 C180.663,39.550 180.510,40.577 180.510,41.491 C180.510,42.138 180.564,42.768 180.674,43.381 C180.783,43.995 180.974,44.552 181.248,45.054 C181.521,45.556 181.899,45.957 182.380,46.258 C182.861,46.559 183.473,46.710 184.217,46.710 C185.005,46.710 185.759,46.559 186.481,46.258 C187.203,45.957 187.880,45.561 188.515,45.070 C188.537,44.357 188.651,43.604 188.859,42.812 C189.067,42.021 189.335,41.240 189.663,40.470 C189.991,39.701 190.369,38.971 190.795,38.279 C191.222,37.588 191.664,36.974 192.124,36.439 L192.550,36.707 C192.309,37.465 192.135,38.246 192.025,39.049 C191.916,39.851 191.861,40.643 191.861,41.424 C191.861,42.227 191.927,42.985 192.058,43.699 C192.189,44.413 192.419,45.032 192.747,45.556 C193.075,46.080 193.523,46.492 194.092,46.793 C194.661,47.095 195.393,47.245 196.290,47.245 C197.384,47.245 198.390,46.989 199.309,46.476 C200.227,45.963 201.036,45.316 201.736,44.535 L201.999,44.669 ZM143.569,27.172 L143.208,26.704 C143.886,25.901 144.531,25.098 145.144,24.295 C145.756,23.492 146.336,22.661 146.883,21.802 C147.429,20.944 147.933,20.035 148.392,19.076 C148.851,18.117 149.266,17.069 149.639,15.931 L153.838,18.808 C152.481,20.704 150.967,22.316 149.294,23.642 C147.621,24.970 145.712,26.146 143.569,27.172 ZM147.473,29.514 C148.217,29.514 148.911,29.620 149.556,29.832 C150.201,30.044 150.765,30.356 151.246,30.768 C151.727,31.181 152.104,31.688 152.378,32.291 C152.651,32.893 152.788,33.584 152.788,34.365 C152.788,35.302 152.602,36.127 152.230,36.841 C151.858,37.555 151.366,38.179 150.754,38.714 C150.141,39.249 149.447,39.696 148.671,40.052 C147.894,40.409 147.085,40.699 146.243,40.922 C145.401,41.145 144.570,41.307 143.750,41.407 C142.929,41.508 142.180,41.558 141.502,41.558 L140.715,41.558 C140.999,43.587 141.786,45.137 143.077,46.208 C144.367,47.279 146.150,47.814 148.425,47.814 C150.043,47.814 151.623,47.524 153.165,46.944 C154.707,46.364 156.102,45.561 157.348,44.535 L157.611,44.669 C157.042,45.517 156.358,46.308 155.560,47.044 C154.762,47.780 153.887,48.416 152.936,48.951 C151.984,49.487 150.989,49.910 149.950,50.223 C148.911,50.535 147.867,50.691 146.817,50.691 C145.329,50.691 143.941,50.495 142.651,50.105 C141.360,49.715 140.234,49.119 139.271,48.316 C138.309,47.513 137.554,46.504 137.008,45.288 C136.461,44.073 136.188,42.651 136.188,41.022 C136.188,39.417 136.477,37.917 137.057,36.523 C137.636,35.129 138.435,33.913 139.452,32.876 C140.469,31.839 141.666,31.019 143.044,30.417 C144.422,29.815 145.898,29.514 147.473,29.514 ZM143.422,32.374 C142.754,32.965 142.213,33.690 141.798,34.549 C141.382,35.408 141.081,36.311 140.895,37.259 C140.709,38.207 140.617,39.049 140.617,39.785 L140.617,40.554 L141.437,40.554 C142.224,40.554 143.033,40.426 143.864,40.169 C144.695,39.913 145.444,39.534 146.112,39.032 C146.779,38.530 147.331,37.911 147.768,37.175 C148.206,36.439 148.425,35.603 148.425,34.666 C148.425,33.752 148.233,32.993 147.851,32.391 C147.468,31.789 146.806,31.488 145.866,31.488 C144.903,31.488 144.088,31.784 143.422,32.374 ZM130.135,38.463 C128.286,40.415 126.094,41.948 123.557,43.063 C121.019,44.179 118.253,44.736 115.257,44.736 C114.491,44.736 113.715,44.691 112.927,44.602 C112.140,44.513 111.363,44.401 110.598,44.268 C111.320,49.308 112.632,54.282 114.535,59.189 C114.600,59.367 114.660,59.551 114.715,59.741 C114.770,59.930 114.797,60.114 114.797,60.293 C114.797,60.917 114.458,61.229 113.780,61.229 C113.342,61.229 112.927,61.146 112.534,60.978 C112.140,60.811 111.779,60.627 111.451,60.426 C110.773,60.047 110.177,59.490 109.663,58.754 C109.149,58.018 108.712,57.170 108.351,56.211 C107.990,55.252 107.683,54.209 107.432,53.083 C107.180,51.956 106.978,50.813 106.825,49.654 C106.672,48.494 106.551,47.345 106.464,46.208 C106.377,45.070 106.322,44.011 106.300,43.030 C105.666,42.785 105.026,42.506 104.381,42.193 C103.736,41.881 103.156,41.530 102.642,41.139 C102.128,40.750 101.707,40.326 101.379,39.868 C101.051,39.411 100.887,38.926 100.887,38.413 C100.887,38.011 100.980,37.649 101.166,37.326 C101.351,37.003 101.663,36.841 102.101,36.841 C102.473,36.841 102.823,36.924 103.151,37.091 C103.479,37.259 103.807,37.476 104.135,37.744 C104.463,38.011 104.802,38.318 105.152,38.664 C105.502,39.010 105.874,39.361 106.267,39.718 C106.267,37.443 106.344,35.029 106.497,32.475 C106.650,29.921 106.924,27.367 107.317,24.813 C107.711,22.260 108.241,19.767 108.908,17.336 C109.575,14.905 110.423,12.664 111.451,10.612 L112.041,10.812 C111.298,14.671 110.756,18.535 110.417,22.405 C110.078,26.274 109.909,30.149 109.909,34.030 C109.909,35.458 109.947,36.869 110.024,38.262 C110.100,39.656 110.215,41.045 110.368,42.428 C111.024,42.695 111.757,42.907 112.566,43.063 C113.375,43.219 114.272,43.297 115.257,43.297 C116.918,43.297 118.466,43.041 119.899,42.528 C121.331,42.015 122.643,41.307 123.836,40.403 C125.027,39.500 126.083,38.435 127.002,37.209 C127.920,35.982 128.696,34.661 129.331,33.244 C129.965,31.828 130.446,30.356 130.774,28.828 C131.102,27.301 131.266,25.767 131.266,24.228 C131.266,22.711 131.102,21.167 130.774,19.594 C130.446,18.022 129.959,16.495 129.314,15.011 C128.669,13.528 127.882,12.140 126.952,10.846 C126.022,9.553 124.956,8.420 123.754,7.450 C122.551,6.480 121.222,5.710 119.768,5.142 C118.313,4.573 116.744,4.289 115.060,4.289 C113.682,4.289 112.260,4.545 110.795,5.058 C109.329,5.571 108.001,6.291 106.809,7.216 C105.616,8.142 104.632,9.252 103.856,10.545 C103.079,11.839 102.691,13.255 102.691,14.794 C102.691,15.396 102.762,15.937 102.905,16.416 C103.047,16.896 103.200,17.336 103.364,17.738 C103.528,18.139 103.681,18.513 103.823,18.858 C103.965,19.204 104.037,19.556 104.037,19.912 C104.037,20.559 103.823,21.100 103.397,21.535 C102.970,21.970 102.450,22.187 101.838,22.187 C101.269,22.187 100.821,22.031 100.493,21.719 C100.165,21.407 99.908,21.016 99.722,20.548 C99.536,20.079 99.416,19.583 99.361,19.059 C99.307,18.535 99.279,18.072 99.279,17.671 C99.279,15.708 99.733,13.929 100.641,12.335 C101.548,10.740 102.735,9.318 104.201,8.069 C105.119,7.266 106.043,6.558 106.973,5.945 C107.902,5.332 108.859,4.819 109.843,4.406 C110.828,3.993 111.861,3.681 112.944,3.469 C114.026,3.257 115.180,3.151 116.405,3.151 C119.248,3.151 121.872,3.648 124.279,4.640 C126.684,5.633 128.757,7.015 130.495,8.788 C132.234,10.561 133.590,12.669 134.564,15.111 C135.537,17.554 136.024,20.236 136.024,23.157 C136.024,26.168 135.504,28.984 134.465,31.605 C133.426,34.226 131.983,36.512 130.135,38.463 ZM78.542,37.493 C72.154,37.493 63.592,32.081 59.805,32.081 C63.592,32.081 72.134,26.669 78.542,26.669 C81.557,26.669 84.002,29.092 84.002,32.081 C84.002,35.070 81.557,37.493 78.542,37.493 ZM77.420,30.670 C75.737,30.670 73.828,32.110 73.828,32.110 C73.828,32.110 75.742,33.550 77.420,33.550 C78.212,33.550 78.854,32.906 78.854,32.110 C78.854,31.315 78.212,30.670 77.420,30.670 ZM58.339,21.112 C61.286,19.897 66.509,12.746 71.497,10.689 C73.843,9.722 76.524,10.858 77.485,13.227 C78.446,15.596 77.322,18.301 74.976,19.269 C70.004,21.319 61.286,19.897 58.339,21.112 ZM73.731,14.357 C73.461,13.694 72.714,13.377 72.062,13.647 C70.677,14.221 69.127,16.306 69.127,16.306 C69.127,16.306 71.659,16.617 73.039,16.045 C73.691,15.775 74.001,15.019 73.731,14.357 ZM54.316,52.367 C54.329,52.358 54.342,52.350 54.354,52.340 C54.343,52.353 54.331,52.366 54.319,52.379 C54.318,52.375 54.317,52.371 54.316,52.367 ZM53.159,10.787 C45.062,5.192 34.776,5.261 29.449,8.677 C23.710,12.358 21.809,19.929 24.463,25.937 C26.036,29.500 30.073,32.517 29.986,35.104 C29.938,36.567 29.351,36.829 28.129,37.201 C27.612,37.358 26.711,36.762 25.978,37.054 C25.245,37.347 25.132,38.541 25.393,39.351 C25.655,40.162 25.711,41.022 26.974,41.502 C27.028,43.104 25.752,43.699 25.272,43.733 C24.251,43.806 22.363,43.760 21.867,43.287 C22.575,44.462 24.463,44.640 25.673,44.705 C27.033,44.779 28.490,45.620 27.836,47.293 C25.904,47.165 24.968,49.605 25.929,52.121 C26.627,53.947 28.536,55.799 30.769,56.801 C36.741,59.482 44.952,58.471 52.882,53.342 C52.975,53.432 53.090,53.498 53.216,53.540 C47.682,59.075 40.030,62.502 31.574,62.502 C14.690,62.502 1.002,48.846 1.002,32.001 C1.002,15.156 14.690,1.500 31.574,1.500 C40.162,1.500 47.921,5.035 53.474,10.723 C53.363,10.726 53.256,10.747 53.159,10.787 ZM14.903,24.758 C14.809,24.981 14.753,25.224 14.744,25.480 C14.705,26.611 15.593,27.558 16.726,27.597 C17.859,27.635 18.809,26.750 18.848,25.620 C18.855,25.412 18.830,25.210 18.779,25.019 C20.103,25.547 20.668,26.465 21.086,27.162 C20.864,25.589 18.393,23.591 17.105,23.435 C15.988,23.300 14.938,23.089 12.852,23.874 C11.259,24.473 9.542,26.761 8.746,26.653 C11.017,27.738 12.105,25.405 14.903,24.758 ZM14.862,19.488 C11.631,19.872 9.162,21.848 8.426,24.036 C9.570,22.299 11.913,20.855 14.842,20.514 C17.759,20.174 20.175,21.058 21.326,22.578 C20.628,20.475 18.077,19.107 14.862,19.488 ZM74.976,45.040 C77.322,46.007 78.446,48.712 77.485,51.081 C76.524,53.450 73.843,54.586 71.497,53.619 C66.509,51.562 61.286,44.411 58.339,43.196 C61.286,44.411 70.004,42.989 74.976,45.040 ZM72.037,50.771 C72.728,51.057 73.520,50.721 73.806,50.020 C74.092,49.320 73.764,48.521 73.073,48.236 C71.609,47.631 68.924,47.960 68.924,47.960 C68.924,47.960 70.568,50.164 72.037,50.771 Z" transform="translate(7.59 3)" class="cls-1"/>
  </g>
</svg>
