<svg xmlns="http://www.w3.org/2000/svg" xmlns:xlink="http://www.w3.org/1999/xlink" preserveAspectRatio="xMidYMid" width="54.03" height="54.031" viewBox="0 0 54.03 54.031">
  <defs>
    <style>
      .cls-1 {
        fill: #e9f2c2;
        fill-rule: evenodd;
      }
    </style>
  </defs>
  <path d="M53.645,27.783 C53.173,28.254 52.407,28.254 51.935,27.783 C51.463,27.313 51.463,26.550 51.935,26.080 C52.407,25.609 53.173,25.609 53.645,26.080 C54.117,26.550 54.117,27.313 53.645,27.783 ZM43.439,40.147 C49.390,32.592 49.366,21.884 43.370,14.354 L44.169,13.217 C50.826,21.333 50.826,33.067 44.168,41.182 L43.439,40.147 ZM38.206,21.695 C38.929,23.161 39.346,24.738 39.457,26.334 L44.463,27.201 L39.455,28.095 C39.341,29.681 38.923,31.248 38.205,32.706 L37.948,32.340 C38.572,31.014 38.944,29.599 39.059,28.166 L35.463,28.808 L34.332,27.201 L35.433,25.637 L39.062,26.265 C38.950,24.822 38.578,23.396 37.949,22.060 L38.206,21.695 ZM48.225,48.372 L26.933,33.534 L5.776,48.372 L20.605,27.201 L5.776,6.030 L26.933,20.868 L48.225,6.030 L33.331,27.201 L48.225,48.372 ZM33.819,34.036 L31.239,28.428 C31.057,29.053 30.719,29.599 30.304,30.075 L31.299,31.489 L29.883,30.503 C29.382,30.939 28.796,31.283 28.130,31.458 L33.819,34.036 ZM20.181,34.036 L25.869,31.456 C25.199,31.279 24.610,30.932 24.107,30.491 L22.702,31.470 L23.691,30.063 C23.278,29.587 22.942,29.041 22.762,28.417 L20.181,34.036 ZM20.150,20.366 L22.740,26.057 C22.916,25.403 23.257,24.828 23.687,24.333 L22.702,22.932 L24.111,23.914 C24.588,23.498 25.137,23.159 25.765,22.976 L20.150,20.366 ZM23.777,27.201 C23.777,28.976 25.220,30.415 27.000,30.415 C28.780,30.415 30.223,28.976 30.223,27.201 C30.223,25.425 28.780,23.986 27.000,23.986 C25.220,23.986 23.777,25.425 23.777,27.201 ZM33.850,20.366 L28.234,22.975 C28.858,23.156 29.404,23.491 29.879,23.902 L31.299,22.913 L30.307,24.322 C30.740,24.816 31.083,25.391 31.261,26.045 L33.850,20.366 ZM27.004,29.799 C25.566,29.799 24.399,28.636 24.399,27.201 C24.399,25.766 25.566,24.602 27.004,24.602 C28.443,24.602 29.609,25.766 29.609,27.201 C29.609,28.636 28.443,29.799 27.004,29.799 ZM27.253,26.943 L26.996,25.499 L26.742,26.944 L25.294,27.197 L26.742,27.453 L27.000,28.907 L27.255,27.455 L28.710,27.201 L27.253,26.943 ZM21.455,16.031 C22.923,15.306 24.505,14.886 26.104,14.773 L27.000,9.782 L27.869,14.771 C29.451,14.881 31.016,15.291 32.472,15.998 L32.105,16.253 C30.780,15.639 29.367,15.275 27.937,15.165 L28.557,18.726 L26.923,19.865 L25.384,18.786 L26.034,15.166 C24.587,15.281 23.158,15.656 21.820,16.287 L21.455,16.031 ZM14.120,10.887 L12.970,10.080 C21.100,3.435 32.859,3.427 40.997,10.056 L39.842,10.861 C32.303,4.982 21.650,4.991 14.120,10.887 ZM26.145,2.057 C25.673,1.586 25.673,0.822 26.145,0.351 C26.616,-0.120 27.381,-0.120 27.852,0.351 C28.324,0.822 28.324,1.586 27.852,2.057 C27.381,2.528 26.616,2.528 26.145,2.057 ZM9.811,13.236 L10.609,14.375 C4.635,21.897 4.612,32.580 10.540,40.126 L9.813,41.164 C3.175,33.056 3.174,21.345 9.811,13.236 ZM15.769,32.660 C15.064,31.215 14.654,29.664 14.541,28.095 L9.537,27.201 L14.539,26.335 C14.648,24.755 15.059,23.194 15.768,21.741 L16.024,22.106 C15.409,23.429 15.044,24.839 14.934,26.266 L18.505,25.648 L19.593,27.201 L18.475,28.797 L14.937,28.165 C15.050,29.581 15.414,30.981 16.026,32.294 L15.769,32.660 ZM0.352,27.783 C-0.120,27.313 -0.120,26.550 0.352,26.080 C0.824,25.609 1.590,25.609 2.062,26.080 C2.534,26.550 2.534,27.313 2.062,27.783 C1.590,28.254 0.824,28.254 0.352,27.783 ZM32.468,38.402 C31.013,39.108 29.450,39.517 27.869,39.627 L27.000,44.620 L26.103,39.625 C24.505,39.511 22.926,39.092 21.458,38.369 L21.825,38.112 C23.161,38.741 24.588,39.115 26.032,39.230 L25.384,35.616 L26.923,34.537 L28.557,35.676 L27.938,39.231 C29.366,39.121 30.777,38.758 32.100,38.145 L32.468,38.402 ZM39.967,43.628 L40.994,44.344 C32.857,50.971 21.102,50.962 12.973,44.320 L13.996,43.602 C21.575,49.629 32.379,49.637 39.967,43.628 ZM27.852,51.940 C28.324,52.411 28.324,53.175 27.852,53.646 C27.381,54.117 26.616,54.117 26.145,53.646 C25.673,53.175 25.673,52.411 26.145,51.940 C26.616,51.469 27.381,51.469 27.852,51.940 Z" class="cls-1"/>
</svg>
