<svg xmlns="http://www.w3.org/2000/svg" xmlns:xlink="http://www.w3.org/1999/xlink" preserveAspectRatio="xMidYMid" width="256" height="256" viewBox="0 0 256 256">
  <defs>
    <style>
      .cls-1 {
        fill: #e9f2c2;
        fill-opacity: 0.05;
        fill-rule: evenodd;
      }
    </style>

    <clipPath id="clip-path-1">
      <rect x="-662.015" y="29.016" width="1024" height="1024"/>
    </clipPath>
  </defs>
  <g clip-path="url(#clip-path-1)">
    <path d="M125.575,113.228 L70.132,74.418 L15.041,113.229 L53.653,57.854 L15.041,2.479 L70.132,41.290 L125.575,2.481 L86.791,57.854 L125.575,113.228 ZM88.064,75.731 L81.374,61.129 C80.895,62.754 80.053,64.214 78.967,65.453 L81.500,69.070 L77.880,66.536 C76.574,67.678 75.022,68.547 73.295,69.010 L88.064,75.731 ZM52.549,75.731 L67.315,69.006 C65.578,68.538 64.018,67.659 62.708,66.504 L59.114,69.020 L61.633,65.423 C60.552,64.182 59.717,62.722 59.243,61.097 L52.549,75.731 ZM52.469,39.977 L59.191,54.811 C59.653,53.109 60.510,51.577 61.632,50.284 L59.114,46.688 L62.703,49.201 C63.940,48.106 65.399,47.257 67.025,46.774 L52.469,39.977 ZM61.915,57.854 C61.915,62.497 65.672,66.262 70.307,66.262 C74.941,66.262 78.698,62.497 78.698,57.854 C78.698,53.210 74.941,49.446 70.307,49.446 C65.672,49.446 61.915,53.210 61.915,57.854 ZM88.143,39.977 L73.586,46.770 C75.201,47.248 76.652,48.087 77.885,49.169 L81.500,46.638 L78.967,50.255 C80.095,51.546 80.958,53.076 81.426,54.779 L88.143,39.977 ZM70.318,64.650 C66.572,64.650 63.535,61.607 63.535,57.854 C63.535,54.100 66.572,51.058 70.318,51.058 C74.064,51.058 77.101,54.100 77.101,57.854 C77.101,61.607 74.064,64.650 70.318,64.650 ZM70.965,57.180 L70.297,53.403 L69.636,57.182 L65.864,57.845 L69.633,58.514 L70.306,62.315 L70.970,58.520 L74.759,57.854 L70.965,57.180 ZM55.867,28.638 C59.691,26.743 63.809,25.645 67.974,25.347 L70.306,12.293 L72.568,25.343 C76.688,25.629 80.763,26.702 84.555,28.552 L83.601,29.219 C80.150,27.613 76.470,26.661 72.746,26.372 L74.361,35.688 L70.105,38.667 L66.099,35.845 L67.790,26.377 C64.023,26.677 60.302,27.657 56.817,29.307 L55.867,28.638 ZM36.769,15.184 L33.773,13.073 C54.943,-4.308 85.562,-4.330 106.754,13.010 L103.747,15.115 C84.116,-0.261 56.377,-0.238 36.769,15.184 ZM25.548,21.327 L27.625,24.306 C12.069,43.980 12.009,71.923 27.445,91.660 L25.552,94.376 C8.267,73.168 8.265,42.537 25.548,21.327 ZM41.063,72.132 C39.227,68.354 38.158,64.296 37.864,60.192 L24.835,57.854 L37.858,55.588 C38.143,51.458 39.213,47.373 41.059,43.572 L41.726,44.529 C40.123,47.988 39.174,51.677 38.888,55.409 L48.185,53.791 L51.018,57.854 L48.107,62.029 L38.894,60.377 C39.190,64.080 40.137,67.741 41.730,71.174 L41.063,72.132 ZM0.917,59.377 C-0.313,58.147 -0.313,56.152 0.917,54.921 C2.146,53.691 4.140,53.691 5.369,54.921 C6.599,56.152 6.599,58.147 5.369,59.377 C4.140,60.608 2.146,60.608 0.917,59.377 ZM84.545,87.150 C80.757,88.997 76.686,90.068 72.570,90.355 L70.306,103.416 L67.972,90.350 C63.811,90.053 59.697,88.956 55.876,87.064 L56.830,86.392 C60.310,88.038 64.025,89.016 67.787,89.316 L66.098,79.864 L70.105,77.041 L74.361,80.021 L72.749,89.321 C76.467,89.032 80.141,88.083 83.588,86.480 L84.545,87.150 ZM104.071,100.820 L106.747,102.693 C85.557,120.025 54.947,120.004 33.780,102.630 L36.446,100.752 C56.179,116.516 84.314,116.538 104.071,100.820 ZM72.526,122.562 C73.754,123.794 73.754,125.791 72.526,127.023 C71.298,128.255 69.307,128.255 68.079,127.023 C66.851,125.791 66.851,123.794 68.079,122.562 C69.307,121.330 71.298,121.330 72.526,122.562 ZM115.010,94.423 L113.113,91.715 C128.607,71.956 128.547,43.946 112.933,24.251 L115.014,21.279 C132.349,42.507 132.348,73.198 115.010,94.423 ZM99.486,43.452 C101.368,47.286 102.455,51.413 102.744,55.586 L115.778,57.854 L102.738,60.193 C102.441,64.341 101.354,68.441 99.482,72.252 L98.813,71.296 C100.440,67.828 101.408,64.125 101.708,60.378 L92.343,62.058 L89.399,57.854 L92.264,53.763 L101.714,55.407 C101.424,51.632 100.455,47.901 98.817,44.407 L99.486,43.452 Z" transform="translate(63.98 64.02)" class="cls-1"/>
  </g>
</svg>
